<svg width="1080" height="1080" viewBox="0 0 1080 1080" fill="none" xmlns="http://www.w3.org/2000/svg">
<path d="M213.756 809.24V811.789H157.182V808.73C157.182 808.73 161.169 808.73 161.917 808.73C164.908 808.22 167.151 807.201 168.397 805.416C170.391 802.612 170.142 798.279 167.899 791.906L151.45 751.885H95.8728L83.1623 787.318C80.4209 795.985 80.4209 801.593 82.9131 805.162C84.9069 807.966 88.396 809.24 93.3805 809.24H95.1251V812.299H55V809.24H56.2461C64.7197 809.24 70.7011 803.632 75.6856 790.887L125.032 654.51H134.253L134.503 655.02L192.323 791.142C197.058 801.593 202.042 806.946 208.522 808.73C209.021 808.73 209.519 808.73 210.017 808.73C210.765 808.985 213.756 809.24 213.756 809.24ZM97.8666 746.277H149.456L121.792 678.981L97.8666 746.277Z" fill="white"/>
<path d="M328.01 809.24L327.76 808.985H329.256V812.044H296.358V793.691C296.109 793.946 295.86 794.2 295.61 794.455C287.137 805.162 273.679 813.574 261.467 814.083C260.968 814.083 260.47 814.083 259.971 814.083C251.747 814.083 244.519 810.77 238.787 804.907C229.068 794.455 230.563 779.161 230.563 765.905V729.963C230.563 722.061 229.317 716.963 226.575 713.904C225.08 712.119 223.086 711.1 220.843 710.845C219.846 710.845 218.849 710.845 217.852 710.845V707.786L247.012 702.688H250.75V703.453C250.75 703.453 250.75 780.435 250.75 781.2C250.999 791.651 253.99 804.142 267.448 804.142C284.645 804.142 295.61 786.298 296.857 784.259V729.963C296.857 727.669 296.607 725.63 296.358 723.335C296.109 721.551 295.361 717.982 293.367 715.178C291.124 711.865 287.386 711.355 285.392 711.355H283.897V708.296H284.645L313.056 703.198H316.794C316.794 703.198 316.794 782.22 316.794 782.984C316.794 792.161 318.041 802.867 320.782 805.926C322.527 807.966 324.77 809.24 328.01 809.24Z" fill="white"/>
<path d="M427.125 711.1L426.128 711.865C426.377 714.414 425.629 716.963 424.134 719.002C422.14 721.551 419.897 722.571 417.156 722.316C414.664 722.061 412.171 720.532 409.679 719.002C408.433 718.237 407.187 717.473 405.941 716.963C403.947 716.198 397.467 713.904 392.233 716.708C388.495 718.747 383.76 722.826 378.028 729.453L377.778 729.708V730.218C377.778 754.689 377.778 789.867 377.778 789.867C377.778 798.279 379.025 803.632 381.766 806.691C383.511 808.73 385.754 809.75 388.744 809.75C388.744 809.75 389.99 809.75 390.24 809.75V812.809H345.628V809.75H346.376C349.865 809.75 352.108 808.985 354.102 806.946C356.594 804.142 357.84 799.299 358.09 791.906C358.09 791.142 358.09 732.257 358.09 731.748C358.09 723.336 356.844 717.982 354.102 714.924C352.108 712.629 349.616 711.61 346.376 711.61H345.379V708.551L374.04 703.453H378.277V721.551L379.772 720.022C387.249 711.355 401.205 701.923 413.916 701.668C415.411 701.668 416.907 701.668 418.153 701.923C420.396 702.688 422.888 703.962 424.383 705.492C425.879 706.766 426.876 708.806 427.125 711.1Z" fill="white"/>
<path d="M542.37 808.985L542.868 810.26V813.319H525.921C517.696 812.809 513.21 809.495 512.961 803.122V801.338L511.964 802.103L503.491 807.456C494.768 812.554 484.799 815.358 475.827 815.358C472.338 815.358 469.098 814.848 466.107 814.083C460.126 812.554 454.393 808.22 450.904 802.612C448.661 799.299 447.415 794.455 446.917 790.887C446.667 789.612 446.667 788.083 446.667 786.553C446.169 771.768 455.889 761.572 464.362 757.239C475.079 751.631 485.297 749.081 494.269 746.787C500.998 745.258 507.478 743.728 512.961 741.179C512.961 741.179 512.961 728.179 512.961 726.904C512.961 725.12 512.712 723.335 511.964 721.551C510.469 717.473 507.727 714.159 503.74 711.61C499.503 709.061 494.768 707.786 489.783 707.786C486.294 707.786 483.054 708.551 480.064 710.335C476.076 712.629 473.085 716.198 471.59 721.041C471.091 722.826 470.842 724.865 470.593 726.394V726.649C470.095 729.708 469.596 732.767 467.852 734.806C466.107 736.846 463.615 738.12 461.372 738.12C457.135 738.12 455.141 735.826 454.144 733.787C451.901 728.943 453.895 721.551 457.135 717.473C459.378 714.669 462.119 712.119 465.11 710.08C476.325 702.433 492.026 699.629 505.983 702.688C513.46 704.472 522.93 708.551 527.416 713.904C529.41 716.198 531.154 719.257 531.902 722.316C533.397 727.669 533.398 733.532 533.398 738.375C533.398 738.885 533.148 790.377 533.148 790.887C533.148 795.475 533.398 800.828 535.641 804.907C537.136 807.456 539.379 808.73 542.37 808.985ZM504.986 800.063L504.737 799.554C508.475 798.279 511.964 795.985 512.961 795.22V747.297C507.977 749.846 502.992 751.376 498.257 752.905C489.036 755.709 480.313 758.513 472.836 766.925C468.848 771.513 466.855 777.121 467.104 783.494V784.004C467.104 786.808 467.104 795.22 477.073 800.828C480.562 802.867 491.029 805.162 504.986 800.063Z" fill="white"/>
<path d="M627.328 654.255L627.826 654C662.219 654 681.908 668.785 681.908 694.786C681.908 722.061 659.478 738.375 621.845 738.375H595.926V789.612C595.926 798.024 597.421 803.377 600.412 806.436C602.405 808.475 604.898 809.495 608.138 809.495H609.633V812.554H559.04V809.495H560.037C563.526 809.495 566.517 808.73 568.76 806.691C571.751 803.632 573.246 798.279 573.246 789.867V677.197C573.246 668.785 571.751 663.432 568.76 660.373C566.766 658.334 564.274 657.314 560.785 657.314H559.04V654.255H627.328ZM621.845 733.022H621.596C644.524 733.022 658.232 718.747 658.232 694.786C658.232 671.844 647.515 659.098 627.826 659.098H595.926V733.022H621.845Z" fill="white"/>
<path d="M780.507 747.297L781.504 747.807C759.572 747.807 731.161 747.807 709.229 747.807C708.481 756.984 709.229 765.905 711.223 773.808C713.466 782.475 717.204 789.612 722.189 794.71C729.915 802.612 742.127 805.926 752.345 802.867C762.065 800.063 770.787 791.906 775.772 781.2L776.021 780.435L778.264 781.455C778.513 781.71 778.763 781.965 779.012 781.965C779.261 782.22 779.51 782.475 780.009 782.729L780.756 782.984L780.507 783.749C775.523 797.004 765.055 807.966 753.093 812.044C748.856 813.574 744.37 814.338 739.634 814.338C734.401 814.338 728.918 813.319 723.435 811.534C712.967 807.966 704.245 801.593 698.014 793.181C690.039 782.22 686.051 766.415 687.547 751.121C688.793 739.395 693.03 728.434 699.509 720.022C707.983 708.806 721.192 701.668 734.899 701.158C735.398 701.158 735.896 701.158 736.395 701.158C747.61 701.158 758.575 705.492 766.551 713.394C775.273 722.061 780.507 734.806 780.507 747.297ZM709.727 742.199L763.062 741.944C763.56 732.257 760.569 722.826 755.086 716.453C749.354 709.825 740.881 706.511 733.404 708.296C727.672 709.57 722.189 713.649 718.201 719.512C713.217 726.394 710.226 734.297 709.727 742.199Z" fill="white"/>
<path d="M899.169 808.985L899.667 810.26V813.319H882.72C874.496 812.809 870.01 809.495 869.761 803.122V801.338L868.764 802.103L860.29 807.456C851.567 812.554 841.598 815.358 832.626 815.358C829.137 815.358 825.897 814.848 822.906 814.083C816.925 812.554 811.193 808.22 807.704 802.612C805.461 799.299 804.215 794.455 803.716 790.887C803.467 789.612 803.467 788.083 803.467 786.553C802.968 771.768 812.688 761.572 821.162 757.239C831.879 751.631 842.097 749.081 851.069 746.787C857.798 745.258 864.278 743.728 869.761 741.179C869.761 741.179 869.761 728.179 869.761 726.904C869.761 725.12 869.511 723.335 868.764 721.551C867.268 717.473 864.527 714.159 860.539 711.61C856.303 709.061 851.567 707.786 846.583 707.786C843.094 707.786 839.854 708.551 836.863 710.335C832.875 712.629 829.885 716.198 828.389 721.041C827.891 722.826 827.642 724.865 827.392 726.394V726.649C826.894 729.708 826.396 732.767 824.651 734.806C822.906 736.846 820.414 738.12 818.171 738.12C813.934 738.12 811.941 735.826 810.944 733.787C808.701 728.943 810.694 721.551 813.934 717.473C816.177 714.669 818.919 712.119 821.91 710.08C833.125 702.433 848.826 699.629 862.782 702.688C870.259 704.472 879.73 708.551 884.216 713.904C886.209 716.198 887.954 719.257 888.702 722.316C890.197 727.669 890.197 733.532 890.197 738.375C890.197 738.885 889.948 790.377 889.948 790.887C889.948 795.475 890.197 800.828 892.44 804.907C893.935 807.456 896.178 808.73 899.169 808.985ZM861.785 800.063L861.536 799.554C865.275 798.279 868.764 795.985 869.761 795.22V747.297C864.776 749.846 859.792 751.376 855.056 752.905C845.835 755.709 837.112 758.513 829.635 766.925C825.648 771.513 823.654 777.121 823.903 783.494V784.004C823.903 786.808 823.903 795.22 833.872 800.828C837.361 802.867 847.829 805.162 861.785 800.063Z" fill="white"/>
<path d="M1024.75 808.985L1025 809.24V812.299H980.887V809.24H982.881C985.623 809.24 987.367 808.475 988.115 806.691C989.61 803.632 987.866 798.279 982.134 789.102L958.457 751.121L949.983 760.043V789.867C949.983 798.279 951.23 803.632 953.971 806.691C955.716 808.73 957.959 809.75 960.949 809.75H962.445V812.809H917.834V809.75H919.329C922.32 809.75 924.563 808.73 926.307 806.691C929.049 803.632 930.295 798.279 930.295 789.867V684.079C930.295 675.922 929.049 670.569 926.307 667.51C924.313 665.216 921.821 664.451 918.581 664.451H917.335V661.392H918.083L946.494 656.294H950.233V750.866C960.451 740.669 982.632 718.492 983.38 717.473C986.121 714.159 987.118 711.355 986.37 709.061C985.623 707.276 983.878 706.257 981.635 706.257H980.887V703.198H1016.28V706.257H1014.03C1005.81 706.257 997.087 711.355 985.623 723.081L971.417 737.865L971.915 738.63C978.644 749.336 983.38 755.964 984.626 757.748L984.875 758.003L1006.31 792.671C1012.79 802.867 1018.52 807.966 1024.75 808.985Z" fill="white"/>
<path d="M218.221 876.522H222.803L230.799 902.883L237.626 876.522H242.162L249.129 902.883L256.938 876.522H261.521L251.374 909.438H246.885L239.871 882.562L233.044 909.438H228.602L218.221 876.522Z" fill="#F5EAC2"/>
<path d="M287.02 893.378C287.02 894.97 287.316 896.515 287.909 898.014C288.501 899.481 289.343 900.776 290.434 901.9C291.556 903.024 292.896 903.929 294.455 904.616C296.014 905.271 297.744 905.599 299.645 905.599C301.485 905.599 303.152 905.255 304.649 904.569C306.145 903.851 307.423 902.914 308.483 901.759C309.543 900.604 310.354 899.309 310.915 897.873C311.507 896.406 311.803 894.908 311.803 893.378V892.489C311.803 890.897 311.507 889.367 310.915 887.9C310.322 886.402 309.481 885.091 308.39 883.967C307.299 882.843 305.974 881.954 304.415 881.298C302.887 880.611 301.157 880.268 299.225 880.268C297.385 880.268 295.702 880.627 294.174 881.345C292.678 882.032 291.4 882.952 290.34 884.107C289.28 885.262 288.454 886.573 287.862 888.04C287.301 889.508 287.02 890.99 287.02 892.489V893.378ZM282.531 892.489C282.531 890.366 282.921 888.306 283.7 886.308C284.511 884.31 285.664 882.547 287.16 881.017C288.657 879.456 290.449 878.208 292.538 877.271C294.658 876.335 297.027 875.867 299.645 875.867C302.202 875.867 304.493 876.35 306.519 877.318C308.577 878.286 310.322 879.55 311.756 881.111C313.221 882.671 314.344 884.451 315.123 886.449C315.902 888.446 316.292 890.46 316.292 892.489V893.378C316.292 895.501 315.887 897.561 315.076 899.559C314.297 901.557 313.159 903.336 311.663 904.896C310.198 906.426 308.405 907.659 306.285 908.595C304.197 909.532 301.843 910 299.225 910C296.668 910 294.362 909.516 292.304 908.549C290.247 907.581 288.485 906.317 287.02 904.756C285.586 903.164 284.48 901.385 283.7 899.418C282.921 897.421 282.531 895.407 282.531 893.378V892.489Z" fill="#F5EAC2"/>
<path d="M343.954 893.378C343.954 894.97 344.251 896.515 344.843 898.014C345.435 899.481 346.277 900.776 347.368 901.9C348.49 903.024 349.831 903.929 351.389 904.616C352.948 905.271 354.678 905.599 356.58 905.599C358.419 905.599 360.087 905.255 361.583 904.569C363.079 903.851 364.357 902.914 365.417 901.759C366.477 900.604 367.288 899.309 367.849 897.873C368.441 896.406 368.737 894.908 368.737 893.378V892.489C368.737 890.897 368.441 889.367 367.849 887.9C367.257 886.402 366.415 885.091 365.324 883.967C364.233 882.843 362.908 881.954 361.349 881.298C359.822 880.611 358.092 880.268 356.159 880.268C354.32 880.268 352.636 880.627 351.109 881.345C349.612 882.032 348.334 882.952 347.274 884.107C346.214 885.262 345.388 886.573 344.796 888.04C344.235 889.508 343.954 890.99 343.954 892.489V893.378ZM339.465 892.489C339.465 890.366 339.855 888.306 340.634 886.308C341.445 884.31 342.598 882.547 344.095 881.017C345.591 879.456 347.383 878.208 349.472 877.271C351.592 876.335 353.961 875.867 356.58 875.867C359.136 875.867 361.427 876.35 363.453 877.318C365.511 878.286 367.257 879.55 368.691 881.111C370.156 882.671 371.278 884.451 372.057 886.449C372.837 888.446 373.226 890.46 373.226 892.489V893.378C373.226 895.501 372.821 897.561 372.01 899.559C371.231 901.557 370.093 903.336 368.597 904.896C367.132 906.426 365.339 907.659 363.22 908.595C361.131 909.532 358.777 910 356.159 910C353.603 910 351.296 909.516 349.238 908.549C347.181 907.581 345.42 906.317 343.954 904.756C342.52 903.164 341.414 901.385 340.634 899.418C339.855 897.421 339.465 895.407 339.465 893.378V892.489Z" fill="#F5EAC2"/>
<path d="M408.978 905.271C410.849 905.271 412.547 904.928 414.075 904.241C415.634 903.523 416.958 902.602 418.05 901.478C419.172 900.324 420.029 899.012 420.621 897.545C421.214 896.047 421.51 894.518 421.51 892.957C421.51 891.396 421.214 889.882 420.621 888.415C420.029 886.948 419.172 885.653 418.05 884.529C416.958 883.374 415.634 882.453 414.075 881.766C412.547 881.048 410.849 880.689 408.978 880.689H402.058V905.271H408.978ZM397.709 876.522H408.978C411.503 876.522 413.794 877.006 415.852 877.974C417.94 878.91 419.717 880.159 421.182 881.719C422.679 883.28 423.832 885.044 424.643 887.01C425.453 888.946 425.858 890.928 425.858 892.957C425.858 895.017 425.469 897.046 424.689 899.044C423.941 901.01 422.835 902.774 421.37 904.335C419.936 905.864 418.174 907.097 416.086 908.034C414.028 908.97 411.706 909.438 409.118 909.438H397.709V876.522Z" fill="#F5EAC2"/>
<path d="M480.466 900.542L480.373 900.823C479.781 902.134 479.017 903.351 478.082 904.475C477.146 905.599 476.055 906.566 474.808 907.378C473.593 908.19 472.252 908.829 470.787 909.298C469.322 909.766 467.748 910 466.064 910C463.446 910 461.076 909.501 458.957 908.502C456.837 907.503 455.029 906.207 453.533 904.616C452.036 902.992 450.883 901.166 450.072 899.137C449.262 897.077 448.856 895.001 448.856 892.91C448.856 890.787 449.262 888.711 450.072 886.683C450.883 884.622 452.036 882.796 453.533 881.204C455.06 879.612 456.884 878.333 459.003 877.365C461.154 876.366 463.555 875.867 466.205 875.867C467.857 875.867 469.415 876.116 470.881 876.616C472.377 877.084 473.733 877.739 474.949 878.582C476.164 879.394 477.24 880.362 478.175 881.485C479.11 882.609 479.859 883.826 480.42 885.137L480.513 885.372L475.931 886.683L475.837 886.402C474.964 884.622 473.671 883.187 471.956 882.094C470.273 881.002 468.309 880.455 466.064 880.455C464.163 880.455 462.433 880.814 460.874 881.532C459.346 882.25 458.037 883.202 456.946 884.388C455.855 885.543 455.013 886.87 454.421 888.368C453.829 889.835 453.533 891.349 453.533 892.91C453.533 894.502 453.829 896.047 454.421 897.545C455.013 899.044 455.855 900.386 456.946 901.572C458.068 902.727 459.409 903.663 460.967 904.381C462.526 905.068 464.272 905.411 466.205 905.411C468.355 905.411 470.273 904.865 471.956 903.773C473.671 902.649 474.949 901.244 475.79 899.559L475.884 899.278L480.466 900.542Z" fill="#F5EAC2"/>
<path d="M520.446 893.378C521.35 893.378 522.16 893.222 522.877 892.91C523.625 892.567 524.249 892.114 524.748 891.552C525.278 890.99 525.683 890.366 525.963 889.679C526.275 888.961 526.431 888.228 526.431 887.479V886.589C526.431 885.84 526.275 885.122 525.963 884.435C525.683 883.717 525.278 883.077 524.748 882.515C524.249 881.954 523.625 881.517 522.877 881.204C522.16 880.861 521.35 880.689 520.446 880.689H508.756V893.378H520.446ZM504.454 876.522H520.399C521.958 876.522 523.376 876.819 524.654 877.412C525.932 877.974 527.023 878.723 527.927 879.659C528.831 880.596 529.533 881.673 530.031 882.89C530.53 884.076 530.78 885.309 530.78 886.589V887.432C530.78 888.493 530.608 889.539 530.265 890.569C529.922 891.599 529.408 892.567 528.722 893.472C528.068 894.346 527.257 895.111 526.291 895.766C525.324 896.422 524.233 896.905 523.017 897.218L531.949 909.438H526.571L518.014 897.545H508.756V909.298H504.454V876.522Z" fill="#F5EAC2"/>
<path d="M574.374 895.064L569.043 880.596L564.087 895.064H574.374ZM566.284 876.522H572.13L584.381 909.438H579.751L575.964 899.231H562.544L558.663 909.438H553.659L566.284 876.522Z" fill="#F5EAC2"/>
<path d="M607.774 876.522H633.351V880.689H612.076V890.194H628.442V894.361H612.076V909.438H607.774V876.522Z" fill="#F5EAC2"/>
<path d="M666.958 880.689H654.146V876.522H684.026V880.689H671.26V909.438H666.958V880.689Z" fill="#F5EAC2"/>
<path d="M743.734 876.522H748.036V905.271H765.618L765.571 909.438H743.734V876.522Z" fill="#F5EAC2"/>
<path d="M793.284 880.689H780.471V876.522H810.351V880.689H797.586V909.438H793.284V880.689Z" fill="#F5EAC2"/>
<path d="M844.898 905.271C846.769 905.271 848.468 904.928 849.995 904.241C851.554 903.523 852.879 902.602 853.97 901.478C855.092 900.324 855.949 899.012 856.542 897.545C857.134 896.047 857.43 894.518 857.43 892.957C857.43 891.396 857.134 889.882 856.542 888.415C855.949 886.948 855.092 885.653 853.97 884.529C852.879 883.374 851.554 882.453 849.995 881.766C848.468 881.048 846.769 880.689 844.898 880.689H837.978V905.271H844.898ZM833.629 876.522H844.898C847.423 876.522 849.715 877.006 851.772 877.974C853.861 878.91 855.637 880.159 857.103 881.719C858.599 883.28 859.752 885.044 860.563 887.01C861.373 888.946 861.779 890.928 861.779 892.957C861.779 895.017 861.389 897.046 860.61 899.044C859.861 901.01 858.755 902.774 857.29 904.335C855.856 905.864 854.094 907.097 852.006 908.034C849.948 908.97 847.626 909.438 845.038 909.438H833.629V876.522Z" fill="#F5EAC2"/>
<path d="M596.27 203.285L563.207 244.706L598.038 284.617L557.09 251.171L517.636 286.406L550.699 244.984L515.867 205.074L556.815 238.519L596.27 203.285Z" fill="url(#paint0_radial_57_21)"/>
<path d="M556.952 170L562.707 239.024L630.943 244.845L562.707 250.667L556.952 319.691L551.197 250.667L482.962 244.845L551.197 239.024L556.952 170Z" fill="url(#paint1_radial_57_21)"/>
<path d="M341.558 612.419L545.442 456.076L645.74 575.828L545.442 537.574L341.558 612.419Z" fill="url(#paint2_linear_57_21)"/>
<path d="M187 654C408.971 487.677 494.471 331.333 556.952 253.162L871 654L571.75 354.619C487.894 439.443 400.75 535.911 187 654Z" fill="url(#paint3_linear_57_21)"/>
<path d="M571.75 456.076L645.74 529.258L856.202 654L571.75 397.863V456.076Z" fill="url(#paint4_linear_57_21)"/>
<path d="M415.548 414.495L318.538 520.942L216.596 612.419L366.221 421.148L415.548 414.495Z" fill="url(#paint5_linear_57_21)"/>
<defs>
<radialGradient id="paint0_radial_57_21" cx="0" cy="0" r="1" gradientUnits="userSpaceOnUse" gradientTransform="translate(556.952 244.845) scale(73.9904 74.8454)">
<stop stop-color="#FDF5D0"/>
<stop offset="1" stop-color="#9A7327"/>
</radialGradient>
<radialGradient id="paint1_radial_57_21" cx="0" cy="0" r="1" gradientUnits="userSpaceOnUse" gradientTransform="translate(556.952 244.845) scale(73.9904 74.8454)">
<stop stop-color="#FDF5D0"/>
<stop offset="1" stop-color="#9A7327"/>
</radialGradient>
<linearGradient id="paint2_linear_57_21" x1="529" y1="253.162" x2="529" y2="654" gradientUnits="userSpaceOnUse">
<stop stop-color="#F5EAC2"/>
<stop offset="1" stop-color="#8C6A20"/>
</linearGradient>
<linearGradient id="paint3_linear_57_21" x1="529" y1="253.162" x2="529" y2="654" gradientUnits="userSpaceOnUse">
<stop stop-color="#F5EAC2"/>
<stop offset="1" stop-color="#8C6A20"/>
</linearGradient>
<linearGradient id="paint4_linear_57_21" x1="529" y1="253.162" x2="529" y2="654" gradientUnits="userSpaceOnUse">
<stop stop-color="#F5EAC2"/>
<stop offset="1" stop-color="#8C6A20"/>
</linearGradient>
<linearGradient id="paint5_linear_57_21" x1="529" y1="253.162" x2="529" y2="654" gradientUnits="userSpaceOnUse">
<stop stop-color="#F5EAC2"/>
<stop offset="1" stop-color="#8C6A20"/>
</linearGradient>
</defs>
</svg>
