<svg width="1080" height="1080" viewBox="0 0 1080 1080" fill="none" xmlns="http://www.w3.org/2000/svg">
<path d="M210.392 811.453V814.022H153.235V810.939C153.235 810.939 157.264 810.939 158.019 810.939C161.041 810.425 163.307 809.397 164.566 807.599C166.58 804.773 166.329 800.406 164.062 793.983L147.444 753.65H91.2941L78.4527 789.359C75.6829 798.094 75.6829 803.746 78.2009 807.342C80.2152 810.168 83.7403 811.453 88.7762 811.453H90.5388V814.536H50V811.453H51.259C59.8199 811.453 65.863 805.801 70.8989 792.956L120.754 655.514H130.07L130.322 656.028L188.738 793.213C193.522 803.746 198.558 809.141 205.105 810.939C205.608 810.939 206.112 810.939 206.616 810.939C207.371 811.196 210.392 811.453 210.392 811.453ZM93.3085 747.998H145.43L117.481 680.176L93.3085 747.998Z" fill="#191B28"/>
<path d="M325.824 811.453L325.572 811.196H327.083V814.279H293.846V795.782C293.594 796.039 293.343 796.296 293.091 796.552C284.53 807.342 270.933 815.82 258.595 816.334C258.092 816.334 257.588 816.334 257.084 816.334C248.775 816.334 241.473 812.994 235.682 807.085C225.862 796.552 227.373 781.138 227.373 767.78V731.557C227.373 723.593 226.114 718.455 223.344 715.372C221.833 713.573 219.819 712.546 217.553 712.289C216.546 712.289 215.538 712.289 214.531 712.289V709.206L243.991 704.068H247.768V704.839C247.768 704.839 247.768 782.423 247.768 783.194C248.02 793.727 251.041 806.315 264.638 806.315C282.012 806.315 293.091 788.332 294.35 786.276V731.557C294.35 729.244 294.098 727.189 293.846 724.877C293.594 723.079 292.839 719.482 290.825 716.656C288.559 713.317 284.782 712.803 282.767 712.803H281.257V709.72H282.012L310.716 704.582H314.493C314.493 704.582 314.493 784.221 314.493 784.992C314.493 794.24 315.752 805.03 318.522 808.113C320.285 810.168 322.551 811.453 325.824 811.453Z" fill="#191B28"/>
<path d="M425.961 712.546L424.954 713.317C425.206 715.886 424.45 718.455 422.94 720.51C420.925 723.079 418.659 724.106 415.889 723.85C413.371 723.593 410.854 722.051 408.336 720.51C407.077 719.739 405.818 718.968 404.559 718.455C402.544 717.684 395.998 715.372 390.71 718.198C386.933 720.253 382.149 724.363 376.358 731.043L376.106 731.3V731.813C376.106 756.476 376.106 791.928 376.106 791.928C376.106 800.406 377.365 805.801 380.135 808.884C381.897 810.939 384.163 811.967 387.185 811.967C387.185 811.967 388.444 811.967 388.696 811.967V815.049H343.625V811.967H344.38C347.905 811.967 350.171 811.196 352.186 809.141C354.704 806.315 355.963 801.434 356.214 793.983C356.214 793.213 356.214 733.869 356.214 733.355C356.214 724.877 354.955 719.482 352.186 716.399C350.171 714.087 347.653 713.06 344.38 713.06H343.373V709.977L372.329 704.839H376.61V723.079L378.12 721.537C385.674 712.803 399.775 703.297 412.616 703.041C414.127 703.041 415.638 703.041 416.897 703.297C419.163 704.068 421.681 705.353 423.191 706.894C424.702 708.179 425.709 710.234 425.961 712.546Z" fill="#191B28"/>
<path d="M542.394 811.196L542.898 812.48V815.563H525.776C517.466 815.049 512.934 811.71 512.682 805.287V803.489L511.675 804.259L503.114 809.654C494.301 814.792 484.23 817.618 475.165 817.618C471.64 817.618 468.367 817.105 465.345 816.334C459.302 814.792 453.511 810.425 449.986 804.773C447.72 801.434 446.461 796.552 445.957 792.956C445.705 791.671 445.705 790.13 445.705 788.589C445.202 773.688 455.022 763.412 463.583 759.045C474.41 753.393 484.733 750.824 493.798 748.512C500.596 746.971 507.143 745.429 512.682 742.86C512.682 742.86 512.682 729.758 512.682 728.474C512.682 726.675 512.431 724.877 511.675 723.079C510.164 718.968 507.395 715.629 503.366 713.06C499.086 710.491 494.301 709.206 489.266 709.206C485.74 709.206 482.467 709.977 479.446 711.775C475.417 714.087 472.395 717.684 470.885 722.565C470.381 724.363 470.129 726.418 469.877 727.96V728.217C469.374 731.3 468.87 734.382 467.108 736.438C465.345 738.493 462.827 739.777 460.561 739.777C456.281 739.777 454.266 737.465 453.259 735.41C450.993 730.529 453.007 723.079 456.281 718.968C458.547 716.142 461.316 713.573 464.338 711.518C475.669 703.811 491.532 700.985 505.632 704.068C513.186 705.866 522.754 709.977 527.286 715.372C529.301 717.684 531.063 720.767 531.819 723.85C533.329 729.244 533.329 735.153 533.329 740.034C533.329 740.548 533.078 792.442 533.078 792.956C533.078 797.58 533.329 802.975 535.596 807.085C537.106 809.654 539.372 810.939 542.394 811.196ZM504.625 802.204L504.373 801.69C508.15 800.406 511.675 798.094 512.682 797.323V749.026C507.646 751.595 502.611 753.136 497.827 754.678C488.51 757.503 479.697 760.329 472.144 768.807C468.115 773.431 466.101 779.083 466.352 785.506V786.02C466.352 788.845 466.352 797.323 476.424 802.975C479.949 805.03 490.525 807.342 504.625 802.204Z" fill="#191B28"/>
<path d="M628.228 655.257L628.732 655C663.479 655 683.371 669.9 683.371 696.104C683.371 723.593 660.709 740.034 622.689 740.034H596.502V791.671C596.502 800.149 598.013 805.544 601.034 808.627C603.049 810.682 605.567 811.71 608.84 811.71H610.351V814.792H559.237V811.71H560.244C563.769 811.71 566.79 810.939 569.057 808.884C572.078 805.801 573.589 800.406 573.589 791.928V678.378C573.589 669.9 572.078 664.505 569.057 661.423C567.042 659.367 564.524 658.34 560.999 658.34H559.237V655.257H628.228ZM622.689 734.639H622.437C645.602 734.639 659.45 720.253 659.45 696.104C659.45 672.983 648.623 660.138 628.732 660.138H596.502V734.639H622.689Z" fill="#191B28"/>
<path d="M782.987 749.026L783.994 749.54C761.836 749.54 733.132 749.54 710.974 749.54C710.218 758.788 710.974 767.78 712.988 775.744C715.254 784.478 719.031 791.671 724.067 796.809C731.873 804.773 744.21 808.113 754.534 805.03C764.354 802.204 773.167 793.983 778.203 783.194L778.454 782.423L780.72 783.451C780.972 783.707 781.224 783.964 781.476 783.964C781.728 784.221 781.979 784.478 782.483 784.735L783.238 784.992L782.987 785.763C777.951 799.121 767.375 810.168 755.289 814.279C751.009 815.82 746.477 816.591 741.693 816.591C736.405 816.591 730.865 815.563 725.326 813.765C714.751 810.168 705.938 803.746 699.643 795.268C691.586 784.221 687.557 768.293 689.068 752.879C690.327 741.062 694.607 730.015 701.154 721.537C709.715 710.234 723.06 703.04 736.908 702.527C737.412 702.527 737.916 702.527 738.419 702.527C749.75 702.527 760.829 706.894 768.886 714.858C777.699 723.593 782.987 736.438 782.987 749.026ZM711.477 743.888L765.361 743.631C765.865 733.869 762.843 724.363 757.304 717.941C751.513 711.261 742.951 707.922 735.398 709.72C729.606 711.004 724.067 715.115 720.038 721.024C715.002 727.96 711.981 735.924 711.477 743.888Z" fill="#191B28"/>
<path d="M902.872 811.196L903.375 812.48V815.563H886.253C877.944 815.049 873.412 811.71 873.16 805.287V803.489L872.153 804.259L863.592 809.654C854.779 814.792 844.707 817.618 835.643 817.618C832.118 817.618 828.845 817.105 825.823 816.334C819.78 814.792 813.989 810.425 810.464 804.773C808.197 801.434 806.938 796.552 806.435 792.956C806.183 791.671 806.183 790.13 806.183 788.589C805.679 773.688 815.5 763.412 824.06 759.045C834.888 753.393 845.211 750.824 854.276 748.512C861.074 746.971 867.621 745.429 873.16 742.86C873.16 742.86 873.16 729.758 873.16 728.474C873.16 726.675 872.908 724.877 872.153 723.079C870.642 718.968 867.873 715.629 863.844 713.06C859.563 710.491 854.779 709.206 849.743 709.206C846.218 709.206 842.945 709.977 839.924 711.775C835.895 714.087 832.873 717.684 831.362 722.565C830.859 724.363 830.607 726.418 830.355 727.96V728.217C829.852 731.3 829.348 734.382 827.586 736.438C825.823 738.493 823.305 739.777 821.039 739.777C816.758 739.777 814.744 737.465 813.737 735.41C811.471 730.529 813.485 723.079 816.758 718.968C819.025 716.142 821.794 713.573 824.816 711.518C836.147 703.811 852.01 700.985 866.11 704.068C873.664 705.866 883.232 709.977 887.764 715.372C889.779 717.684 891.541 720.767 892.296 723.85C893.807 729.244 893.807 735.153 893.807 740.034C893.807 740.548 893.556 792.442 893.556 792.956C893.556 797.58 893.807 802.975 896.073 807.085C897.584 809.654 899.85 810.939 902.872 811.196ZM865.103 802.204L864.851 801.69C868.628 800.406 872.153 798.094 873.16 797.323V749.026C868.124 751.595 863.089 753.136 858.304 754.678C848.988 757.503 840.175 760.329 832.621 768.807C828.593 773.431 826.578 779.083 826.83 785.506V786.02C826.83 788.845 826.83 797.323 836.902 802.975C840.427 805.03 851.002 807.342 865.103 802.204Z" fill="#191B28"/>
<path d="M1029.75 811.196L1030 811.453V814.536H985.432V811.453H987.447C990.217 811.453 991.979 810.682 992.735 808.884C994.245 805.801 992.483 800.406 986.692 791.158L962.771 752.879L954.21 761.871V791.928C954.21 800.406 955.469 805.801 958.239 808.884C960.001 810.939 962.268 811.967 965.289 811.967H966.8V815.049H921.729V811.967H923.24C926.261 811.967 928.527 810.939 930.29 808.884C933.06 805.801 934.319 800.406 934.319 791.928V685.314C934.319 677.094 933.06 671.699 930.29 668.616C928.275 666.304 925.758 665.533 922.484 665.533H921.225V662.45H921.981L950.685 657.312H954.462V752.622C964.785 742.346 987.195 719.996 987.951 718.968C990.72 715.629 991.727 712.803 990.972 710.491C990.217 708.692 988.454 707.665 986.188 707.665H985.432V704.582H1021.19V707.665H1018.92C1010.61 707.665 1001.8 712.803 990.217 724.62L975.865 739.52L976.368 740.291C983.166 751.081 987.951 757.76 989.209 759.559L989.461 759.816L1011.12 794.754C1017.66 805.03 1023.45 810.168 1029.75 811.196Z" fill="#191B28"/>
<path d="M214.904 879.261H219.534L227.612 905.828L234.509 879.261H239.092L246.131 905.828L254.02 879.261H258.65L248.399 912.434H243.863L236.777 885.348L229.88 912.434H225.392L214.904 879.261Z" fill="#A48745"/>
<path d="M284.412 896.248C284.412 897.853 284.712 899.41 285.31 900.92C285.908 902.399 286.759 903.704 287.861 904.837C288.995 905.969 290.349 906.881 291.924 907.573C293.499 908.234 295.247 908.564 297.168 908.564C299.026 908.564 300.711 908.218 302.223 907.526C303.734 906.803 305.026 905.859 306.097 904.695C307.167 903.531 307.986 902.225 308.553 900.778C309.152 899.3 309.451 897.79 309.451 896.248V895.352C309.451 893.747 309.152 892.206 308.553 890.727C307.955 889.217 307.104 887.896 306.002 886.764C304.9 885.631 303.561 884.734 301.986 884.074C300.443 883.382 298.695 883.036 296.743 883.036C294.884 883.036 293.184 883.397 291.64 884.121C290.129 884.813 288.837 885.741 287.767 886.905C286.696 888.069 285.861 889.39 285.263 890.869C284.696 892.347 284.412 893.842 284.412 895.352V896.248ZM279.877 895.352C279.877 893.213 280.271 891.136 281.058 889.123C281.877 887.11 283.042 885.332 284.554 883.791C286.066 882.218 287.877 880.959 289.987 880.016C292.129 879.072 294.522 878.6 297.168 878.6C299.75 878.6 302.065 879.088 304.112 880.063C306.191 881.038 307.955 882.312 309.403 883.885C310.884 885.458 312.018 887.251 312.805 889.265C313.592 891.278 313.986 893.307 313.986 895.352V896.248C313.986 898.387 313.577 900.464 312.758 902.477C311.97 904.491 310.821 906.284 309.309 907.857C307.829 909.398 306.018 910.641 303.876 911.584C301.766 912.528 299.388 913 296.743 913C294.16 913 291.829 912.512 289.751 911.537C287.672 910.562 285.893 909.288 284.412 907.715C282.964 906.111 281.846 904.318 281.058 902.336C280.271 900.322 279.877 898.293 279.877 896.248V895.352Z" fill="#A48745"/>
<path d="M341.933 896.248C341.933 897.853 342.233 899.41 342.831 900.92C343.429 902.399 344.28 903.704 345.382 904.837C346.516 905.969 347.87 906.881 349.445 907.573C351.02 908.234 352.768 908.564 354.689 908.564C356.547 908.564 358.232 908.218 359.744 907.526C361.256 906.803 362.547 905.859 363.618 904.695C364.689 903.531 365.507 902.225 366.074 900.778C366.673 899.3 366.972 897.79 366.972 896.248V895.352C366.972 893.747 366.673 892.206 366.074 890.727C365.476 889.217 364.626 887.896 363.523 886.764C362.421 885.631 361.082 884.734 359.508 884.074C357.964 883.382 356.216 883.036 354.264 883.036C352.406 883.036 350.705 883.397 349.162 884.121C347.65 884.813 346.359 885.741 345.288 886.905C344.217 888.069 343.382 889.39 342.784 890.869C342.217 892.347 341.933 893.842 341.933 895.352V896.248ZM337.398 895.352C337.398 893.213 337.792 891.136 338.579 889.123C339.398 887.11 340.563 885.332 342.075 883.791C343.587 882.218 345.398 880.959 347.508 880.016C349.65 879.072 352.043 878.6 354.689 878.6C357.271 878.6 359.586 879.088 361.634 880.063C363.712 881.038 365.476 882.312 366.925 883.885C368.405 885.458 369.539 887.251 370.326 889.265C371.113 891.278 371.507 893.307 371.507 895.352V896.248C371.507 898.387 371.098 900.464 370.279 902.477C369.491 904.491 368.342 906.284 366.83 907.857C365.35 909.398 363.539 910.641 361.397 911.584C359.287 912.528 356.909 913 354.264 913C351.681 913 349.351 912.512 347.272 911.537C345.193 910.562 343.414 909.288 341.933 907.715C340.485 906.111 339.367 904.318 338.579 902.336C337.792 900.322 337.398 898.293 337.398 896.248V895.352Z" fill="#A48745"/>
<path d="M407.628 908.234C409.517 908.234 411.234 907.888 412.777 907.196C414.352 906.472 415.69 905.544 416.793 904.412C417.926 903.248 418.792 901.927 419.391 900.448C419.989 898.938 420.288 897.397 420.288 895.824C420.288 894.251 419.989 892.725 419.391 891.246C418.792 889.768 417.926 888.462 416.793 887.33C415.69 886.166 414.352 885.238 412.777 884.546C411.234 883.822 409.517 883.46 407.628 883.46H400.636V908.234H407.628ZM396.242 879.261H407.628C410.179 879.261 412.493 879.748 414.572 880.723C416.682 881.667 418.478 882.926 419.958 884.499C421.47 886.071 422.635 887.849 423.454 889.831C424.273 891.781 424.682 893.779 424.682 895.824C424.682 897.9 424.288 899.945 423.501 901.958C422.745 903.94 421.627 905.717 420.147 907.29C418.698 908.832 416.919 910.074 414.808 911.018C412.73 911.962 410.383 912.434 407.769 912.434H396.242V879.261Z" fill="#A48745"/>
<path d="M479.853 903.468L479.758 903.751C479.16 905.073 478.388 906.299 477.443 907.432C476.499 908.564 475.396 909.54 474.137 910.358C472.908 911.175 471.554 911.82 470.074 912.292C468.593 912.764 467.003 913 465.302 913C462.657 913 460.263 912.497 458.121 911.49C455.98 910.483 454.153 909.178 452.641 907.573C451.13 905.938 449.964 904.097 449.145 902.052C448.327 899.976 447.917 897.884 447.917 895.777C447.917 893.637 448.327 891.545 449.145 889.5C449.964 887.424 451.13 885.584 452.641 883.979C454.185 882.375 456.027 881.085 458.169 880.11C460.342 879.103 462.767 878.6 465.444 878.6C467.113 878.6 468.688 878.852 470.168 879.355C471.68 879.827 473.05 880.488 474.278 881.337C475.507 882.155 476.593 883.13 477.538 884.263C478.483 885.395 479.239 886.622 479.806 887.943L479.9 888.179L475.27 889.5L475.176 889.217C474.294 887.424 472.987 885.977 471.255 884.876C469.554 883.775 467.57 883.224 465.302 883.224C463.381 883.224 461.633 883.586 460.058 884.31C458.515 885.033 457.192 885.993 456.09 887.188C454.988 888.352 454.137 889.689 453.539 891.199C452.94 892.678 452.641 894.204 452.641 895.777C452.641 897.381 452.94 898.938 453.539 900.448C454.137 901.958 454.988 903.311 456.09 904.506C457.224 905.67 458.578 906.614 460.153 907.338C461.728 908.03 463.491 908.376 465.444 908.376C467.617 908.376 469.554 907.825 471.255 906.724C472.987 905.592 474.278 904.176 475.129 902.477L475.223 902.194L479.853 903.468Z" fill="#A48745"/>
<path d="M520.244 896.248C521.158 896.248 521.976 896.091 522.701 895.777C523.457 895.43 524.087 894.974 524.591 894.408C525.126 893.842 525.535 893.213 525.819 892.521C526.134 891.797 526.291 891.058 526.291 890.303V889.406C526.291 888.651 526.134 887.928 525.819 887.235C525.535 886.512 525.126 885.867 524.591 885.301C524.087 884.734 523.457 884.294 522.701 883.979C521.976 883.633 521.158 883.46 520.244 883.46H508.434V896.248H520.244ZM504.087 879.261H520.197C521.772 879.261 523.205 879.56 524.496 880.157C525.787 880.724 526.89 881.479 527.803 882.422C528.716 883.366 529.425 884.451 529.929 885.678C530.433 886.874 530.685 888.116 530.685 889.406V890.256C530.685 891.325 530.512 892.379 530.165 893.417C529.819 894.455 529.299 895.43 528.606 896.343C527.945 897.224 527.126 897.994 526.15 898.655C525.173 899.316 524.071 899.803 522.843 900.118L531.866 912.434H526.433L517.788 900.448H508.434V912.292H504.087V879.261Z" fill="#A48745"/>
<path d="M574.729 897.947L569.343 883.366L564.335 897.947H574.729ZM566.556 879.261H572.461L584.838 912.434H580.161L576.335 902.147H562.776L558.855 912.434H553.8L566.556 879.261Z" fill="#A48745"/>
<path d="M608.473 879.261H634.314V883.46H612.819V893.04H629.354V897.239H612.819V912.434H608.473V879.261Z" fill="#A48745"/>
<path d="M668.267 883.46H655.323V879.261H685.511V883.46H672.613V912.434H668.267V883.46Z" fill="#A48745"/>
<path d="M745.835 879.261H750.181V908.234H767.944L767.897 912.434H745.835V879.261Z" fill="#A48745"/>
<path d="M795.895 883.46H782.951V879.261H813.139V883.46H800.241V912.434H795.895V883.46Z" fill="#A48745"/>
<path d="M848.042 908.234C849.931 908.234 851.648 907.888 853.191 907.196C854.766 906.472 856.104 905.544 857.207 904.412C858.34 903.248 859.207 901.927 859.805 900.448C860.403 898.938 860.703 897.397 860.703 895.824C860.703 894.251 860.403 892.725 859.805 891.246C859.207 889.768 858.34 888.462 857.207 887.33C856.104 886.166 854.766 885.238 853.191 884.546C851.648 883.822 849.931 883.46 848.042 883.46H841.05V908.234H848.042ZM836.656 879.261H848.042C850.593 879.261 852.908 879.748 854.986 880.723C857.097 881.667 858.892 882.926 860.372 884.499C861.884 886.071 863.049 887.849 863.868 889.831C864.687 891.781 865.096 893.779 865.096 895.824C865.096 897.9 864.703 899.945 863.915 901.958C863.159 903.94 862.041 905.717 860.561 907.29C859.112 908.832 857.333 910.074 855.223 911.018C853.144 911.962 850.797 912.434 848.183 912.434H836.656V879.261Z" fill="#A48745"/>
<path d="M607.86 200.423L574.507 242.015L609.644 282.09L568.337 248.507L528.536 283.887L561.889 242.294L526.752 202.219L568.059 235.802L607.86 200.423Z" fill="url(#paint0_radial_57_18)"/>
<path d="M568.197 167L574.003 236.309L642.837 242.155L574.003 248L568.197 317.309L562.392 248L493.558 242.155L562.392 236.309L568.197 167Z" fill="url(#paint1_radial_57_18)"/>
<path d="M350.913 611.247L556.587 454.258L657.764 574.505L556.587 536.093L350.913 611.247Z" fill="url(#paint2_linear_57_18)"/>
<path d="M195 653C418.918 485.99 505.168 329 568.197 250.505L885 653L583.125 352.381C498.534 437.557 410.625 534.423 195 653Z" fill="url(#paint3_linear_57_18)"/>
<path d="M583.125 454.258L657.764 527.742L870.072 653L583.125 395.804V454.258Z" fill="url(#paint4_linear_57_18)"/>
<path d="M425.553 412.505L327.692 519.392L224.856 611.247L375.793 419.186L425.553 412.505Z" fill="url(#paint5_linear_57_18)"/>
<defs>
<radialGradient id="paint0_radial_57_18" cx="0" cy="0" r="1" gradientUnits="userSpaceOnUse" gradientTransform="translate(568.197 242.155) scale(74.6394 75.1546)">
<stop stop-color="#FDF5D0"/>
<stop offset="1" stop-color="#9A7327"/>
</radialGradient>
<radialGradient id="paint1_radial_57_18" cx="0" cy="0" r="1" gradientUnits="userSpaceOnUse" gradientTransform="translate(568.197 242.155) scale(74.6394 75.1546)">
<stop stop-color="#FDF5D0"/>
<stop offset="1" stop-color="#9A7327"/>
</radialGradient>
<linearGradient id="paint2_linear_57_18" x1="540" y1="250.505" x2="540" y2="653" gradientUnits="userSpaceOnUse">
<stop stop-color="#F5EAC2"/>
<stop offset="1" stop-color="#8C6A20"/>
</linearGradient>
<linearGradient id="paint3_linear_57_18" x1="540" y1="250.505" x2="540" y2="653" gradientUnits="userSpaceOnUse">
<stop stop-color="#F5EAC2"/>
<stop offset="1" stop-color="#8C6A20"/>
</linearGradient>
<linearGradient id="paint4_linear_57_18" x1="540" y1="250.505" x2="540" y2="653" gradientUnits="userSpaceOnUse">
<stop stop-color="#F5EAC2"/>
<stop offset="1" stop-color="#8C6A20"/>
</linearGradient>
<linearGradient id="paint5_linear_57_18" x1="540" y1="250.505" x2="540" y2="653" gradientUnits="userSpaceOnUse">
<stop stop-color="#F5EAC2"/>
<stop offset="1" stop-color="#8C6A20"/>
</linearGradient>
</defs>
</svg>
